<?xml version="1.0" standalone="no"?>
<!DOCTYPE svg PUBLIC "-//W3C//DTD SVG 20010904//EN"
 "http://www.w3.org/TR/2001/REC-SVG-20010904/DTD/svg10.dtd">
<svg version="1.0" xmlns="http://www.w3.org/2000/svg"
 width="260.000000pt" height="260.000000pt" viewBox="0 0 260.000000 260.000000"
 preserveAspectRatio="xMidYMid meet">
<metadata>
Created by potrace 1.11, written by Peter Selinger 2001-2013
</metadata>
<g transform="translate(0.000000,260.000000) scale(0.100000,-0.100000)"
fill="#000000" stroke="none">
<path d="M1444 2516 c-3 -8 3 -30 15 -49 l20 -33 -65 -28 c-77 -34 -142 -94
-180 -167 -25 -48 -29 -68 -33 -178 l-6 -124 -52 -18 c-83 -28 -172 -79 -230
-132 -35 -32 -54 -44 -57 -35 -2 7 -12 45 -21 83 -30 128 -36 145 -50 145 -8
0 -24 -18 -35 -39 l-20 -40 -32 30 c-54 49 -131 81 -208 87 -92 6 -146 -9
-257 -71 l-92 -51 26 -48 c14 -26 30 -48 35 -48 5 0 44 20 86 44 42 24 97 50
121 56 73 19 168 -8 219 -63 l23 -25 -36 -22 c-63 -39 -46 -53 90 -72 66 -9
121 -17 122 -17 1 -1 -13 -27 -32 -58 -71 -121 -102 -294 -76 -423 6 -30 13
-66 16 -80 5 -22 -4 -31 -67 -76 -84 -59 -123 -74 -187 -74 -47 0 -142 37
-156 60 -5 8 3 22 24 39 34 29 39 46 15 55 -21 8 -274 8 -274 0 0 -13 84 -239
93 -251 17 -23 34 -13 46 27 12 40 24 50 37 29 13 -22 126 -67 184 -74 40 -5
77 -2 119 9 64 16 83 26 166 87 28 20 58 39 68 42 9 4 53 34 97 68 65 50 82
60 94 50 11 -9 12 -20 5 -44 -13 -46 -12 -47 22 -47 83 0 179 62 212 137 9 21
35 109 57 197 21 87 50 177 64 200 53 91 161 160 269 172 54 6 58 8 52 28 -4
11 -8 33 -10 49 -1 15 -10 33 -19 40 -16 12 -12 18 38 65 31 29 75 62 98 72
58 26 149 26 207 0 l44 -21 -32 -33 c-47 -49 -35 -60 53 -52 39 4 103 13 142
19 l71 12 -63 115 c-34 63 -70 119 -79 125 -19 12 -35 -8 -35 -46 0 -14 -2
-28 -5 -31 -3 -3 -29 7 -58 21 -44 22 -65 26 -142 26 -121 0 -178 -26 -289
-135 -79 -77 -83 -79 -115 -70 -17 5 -64 12 -103 16 l-70 7 4 96 c3 73 9 106
26 137 22 43 80 100 116 113 66 25 66 25 66 -17 0 -53 20 -69 47 -39 62 70
154 200 147 207 -5 4 -61 23 -124 40 -63 18 -121 35 -127 37 -7 3 -16 -2 -19
-11z m-205 -693 c69 -20 128 -38 130 -39 7 -6 -166 -219 -181 -222 -13 -2 -18
8 -23 42 -4 25 -11 46 -16 46 -22 0 -78 -30 -111 -59 -61 -53 -78 -104 -78
-231 l0 -110 -60 0 -60 0 0 103 c0 123 17 191 67 264 38 56 131 127 183 138
36 8 36 8 9 51 -20 33 -19 54 3 54 6 0 67 -16 137 -37z"/>
<path d="M1776 1589 c-60 -46 -81 -57 -92 -49 -7 7 -11 17 -9 23 19 64 18 67
-29 67 -59 0 -140 -43 -177 -95 -21 -29 -40 -85 -72 -210 -50 -193 -70 -239
-132 -300 -55 -53 -121 -85 -206 -98 l-66 -11 15 -38 c22 -57 6 -67 -52 -33
-25 15 -46 24 -46 21 0 -10 151 -106 166 -106 22 0 18 -125 -5 -175 -20 -44
-87 -110 -127 -125 -36 -14 -64 -12 -59 2 7 18 -9 71 -22 75 -7 3 -50 -47 -97
-109 l-85 -113 47 -17 c64 -22 197 -58 216 -58 26 0 29 21 7 51 -25 34 -27 49
-5 49 30 0 134 63 170 103 50 54 83 133 91 209 l5 63 132 0 c118 1 137 3 194
27 34 14 62 24 62 22 0 -2 -20 -36 -45 -76 -53 -85 -49 -106 17 -82 22 8 41
14 43 14 1 0 3 -23 4 -50 4 -112 88 -242 187 -290 37 -18 204 -70 225 -70 7 0
25 42 33 81 6 26 4 27 -96 55 -58 16 -117 40 -139 56 -50 36 -88 103 -96 168
l-6 53 47 -7 c71 -11 70 9 -8 108 -36 47 -66 87 -66 91 0 3 29 35 64 70 36 35
62 57 59 50 -3 -10 13 -19 54 -30 125 -35 157 -49 195 -83 46 -41 64 -72 78
-135 14 -67 8 -77 -42 -64 -31 8 -42 7 -48 -4 -5 -7 -5 -18 -1 -24 82 -109
165 -215 167 -213 16 17 144 235 144 246 0 11 -8 13 -32 9 -18 -3 -40 -8 -49
-12 -13 -5 -17 4 -22 55 -10 111 -89 230 -184 278 -21 11 -76 30 -121 43 -66
18 -82 26 -78 38 2 9 17 48 32 86 24 62 28 84 28 192 l1 123 59 0 c74 0 133
-27 181 -82 33 -39 63 -104 52 -115 -3 -2 -24 -7 -47 -10 -30 -4 -40 -10 -38
-21 3 -15 217 -188 222 -180 2 2 20 63 41 136 43 150 41 170 -18 133 -44 -27
-44 -27 -52 9 -4 17 -24 57 -46 89 -70 105 -183 161 -324 161 l-71 0 -12 34
c-22 60 -30 60 -116 -5z m44 -263 c0 -161 -30 -248 -115 -331 -45 -45 -72 -61
-153 -91 l-23 -9 26 -35 c20 -28 23 -36 12 -47 -10 -10 -36 -6 -137 23 -69 20
-129 40 -133 44 -4 4 31 57 78 118 94 123 115 133 115 56 0 -50 6 -52 65 -25
51 23 118 98 133 149 7 22 12 82 12 135 l0 96 53 3 c28 2 55 2 60 0 4 -2 7
-41 7 -86z"/>
</g>
</svg>
